<mxfile host="65bd71144e">
    <diagram id="gK6WTPBV9qnHe01OfLqO" name="Page-1">
        <mxGraphModel dx="1386" dy="758" grid="1" gridSize="10" guides="1" tooltips="1" connect="1" arrows="1" fold="1" page="1" pageScale="1" pageWidth="827" pageHeight="1169" math="0" shadow="0">
            <root>
                <mxCell id="0"/>
                <mxCell id="1" parent="0"/>
                <mxCell id="7" style="edgeStyle=none;html=1;exitX=0.875;exitY=0.5;exitDx=0;exitDy=0;exitPerimeter=0;" edge="1" parent="1" source="5" target="6">
                    <mxGeometry relative="1" as="geometry"/>
                </mxCell>
                <mxCell id="5" value="Ingress" style="ellipse;shape=cloud;whiteSpace=wrap;html=1;" vertex="1" parent="1">
                    <mxGeometry x="30" y="370" width="120" height="80" as="geometry"/>
                </mxCell>
                <mxCell id="8" style="edgeStyle=none;html=1;" edge="1" parent="1" source="6">
                    <mxGeometry relative="1" as="geometry">
                        <mxPoint x="350" y="410" as="targetPoint"/>
                    </mxGeometry>
                </mxCell>
                <mxCell id="6" value="Azure Front Door" style="aspect=fixed;html=1;points=[];align=center;image;fontSize=12;image=img/lib/azure2/networking/Front_Doors.svg;" vertex="1" parent="1">
                    <mxGeometry x="210" y="380" width="68" height="60" as="geometry"/>
                </mxCell>
                <mxCell id="17" style="edgeStyle=none;html=1;entryX=0;entryY=0.25;entryDx=0;entryDy=0;exitX=1;exitY=0.324;exitDx=0;exitDy=0;exitPerimeter=0;" edge="1" parent="1" source="12" target="14">
                    <mxGeometry relative="1" as="geometry">
                        <mxPoint x="590" y="239.01" as="sourcePoint"/>
                    </mxGeometry>
                </mxCell>
                <mxCell id="20" style="edgeStyle=none;html=1;exitX=0.485;exitY=-0.029;exitDx=0;exitDy=0;exitPerimeter=0;" edge="1" parent="1" source="12">
                    <mxGeometry relative="1" as="geometry">
                        <mxPoint x="570" y="141.01" as="sourcePoint"/>
                        <mxPoint x="513" y="110" as="targetPoint"/>
                    </mxGeometry>
                </mxCell>
                <mxCell id="24" style="edgeStyle=none;rounded=0;html=1;entryX=0.433;entryY=0;entryDx=0;entryDy=0;entryPerimeter=0;endArrow=classic;endFill=1;" edge="1" parent="1" source="12" target="23">
                    <mxGeometry relative="1" as="geometry"/>
                </mxCell>
                <mxCell id="12" value="VM Scale Set" style="aspect=fixed;html=1;points=[];align=center;image;fontSize=12;image=img/lib/azure2/compute/VM_Scale_Sets.svg;" vertex="1" parent="1">
                    <mxGeometry x="480" y="161.01" width="68" height="68" as="geometry"/>
                </mxCell>
                <mxCell id="18" style="edgeStyle=none;html=1;" edge="1" parent="1">
                    <mxGeometry relative="1" as="geometry">
                        <mxPoint x="630" y="207.01" as="sourcePoint"/>
                        <mxPoint x="548" y="207.01" as="targetPoint"/>
                    </mxGeometry>
                </mxCell>
                <mxCell id="14" value="AI Custom Vision" style="editableCssRules=.*;shape=image;verticalLabelPosition=bottom;labelBackgroundColor=none;verticalAlign=top;aspect=fixed;imageAspect=0;image=data:image/svg+xml,PHN2ZyB4bWxucz0iaHR0cDovL3d3dy53My5vcmcvMjAwMC9zdmciIHhtbG5zOnY9Imh0dHBzOi8vdmVjdGEuaW8vbmFubyIgd2lkdGg9IjIwIiBoZWlnaHQ9IjE2IiB2aWV3Qm94PSIwIDAgMjAgMTYiPiYjeGE7CTxzdHlsZSB0eXBlPSJ0ZXh0L2NzcyI+JiN4YTsJLnN0MHtmaWxsOiM2NjlkZjY7fSYjeGE7CS5zdDF7ZmlsbDojYWVjYmZhO30mI3hhOwkuc3Qye2ZpbGw6IzQyODVmNDt9JiN4YTsJPC9zdHlsZT4mI3hhOwk8ZyBjbGFzcz0ic3QwIj4mI3hhOwkJPHBhdGggZD0iTTEwIDE2TDAgOGg0bDYgNC45OXoiLz4mI3hhOwkJPHBhdGggZD0iTTIwIDhsLTEwIDh2LTMuMDFMMTYgOHoiLz4mI3hhOwk8L2c+JiN4YTsJPGcgY2xhc3M9InN0MSI+JiN4YTsJCTxwYXRoIGQ9Ik0xMCAzLjAxTDQgOEgwbDEwLTh6Ii8+JiN4YTsJCTxwYXRoIGQ9Ik0yMCA4TDEwIDB2My4wMUwxNiA4eiIvPiYjeGE7CTwvZz4mI3hhOwk8Y2lyY2xlIGNsYXNzPSJzdDIiIGN4PSIxMCIgY3k9IjgiIHI9IjIiLz4mI3hhOzwvc3ZnPg==;" vertex="1" parent="1">
                    <mxGeometry x="630" y="170.01" width="62.5" height="50" as="geometry"/>
                </mxCell>
                <mxCell id="19" value="Cosmos DB (Cassandra)" style="aspect=fixed;html=1;points=[];align=center;image;fontSize=12;image=img/lib/azure2/databases/Azure_Cosmos_DB.svg;labelBackgroundColor=none;" vertex="1" parent="1">
                    <mxGeometry x="482" y="21.010000000000005" width="64" height="64" as="geometry"/>
                </mxCell>
                <mxCell id="22" value="POST /add_img" style="edgeStyle=none;html=1;endArrow=classic;endFill=1;entryX=-0.015;entryY=0.559;entryDx=0;entryDy=0;entryPerimeter=0;rounded=0;" edge="1" parent="1" source="21" target="12">
                    <mxGeometry relative="1" as="geometry">
                        <mxPoint x="382" y="190" as="targetPoint"/>
                        <Array as="points">
                            <mxPoint x="382" y="199"/>
                        </Array>
                    </mxGeometry>
                </mxCell>
                <mxCell id="26" value="GET /species_data" style="edgeStyle=none;rounded=0;html=1;entryX=0.015;entryY=0.603;entryDx=0;entryDy=0;entryPerimeter=0;endArrow=classic;endFill=1;exitX=0.516;exitY=1.047;exitDx=0;exitDy=0;exitPerimeter=0;" edge="1" parent="1" source="21" target="25">
                    <mxGeometry relative="1" as="geometry">
                        <Array as="points">
                            <mxPoint x="383" y="531"/>
                        </Array>
                    </mxGeometry>
                </mxCell>
                <mxCell id="21" value="Application Gateway" style="aspect=fixed;html=1;points=[];align=center;image;fontSize=12;image=img/lib/azure2/networking/Application_Gateways.svg;labelBackgroundColor=none;" vertex="1" parent="1">
                    <mxGeometry x="350" y="377" width="64" height="64" as="geometry"/>
                </mxCell>
                <mxCell id="23" value="Azure Blob" style="sketch=0;pointerEvents=1;shadow=0;dashed=0;html=1;strokeColor=none;fillColor=#DF8C42;labelPosition=center;verticalLabelPosition=bottom;verticalAlign=top;align=center;outlineConnect=0;shape=mxgraph.veeam2.azure_blob;labelBackgroundColor=none;" vertex="1" parent="1">
                    <mxGeometry x="488" y="300" width="60" height="60" as="geometry"/>
                </mxCell>
                <mxCell id="25" value="VM Scale Set" style="aspect=fixed;html=1;points=[];align=center;image;fontSize=12;image=img/lib/azure2/compute/VM_Scale_Sets.svg;" vertex="1" parent="1">
                    <mxGeometry x="484" y="490" width="68" height="68" as="geometry"/>
                </mxCell>
            </root>
        </mxGraphModel>
    </diagram>
</mxfile>